{
  "accessors": [
    {
      "bufferView": 2,
      "componentType": 5126,
      "count": 2151,
      "max": [
        1.3741899728775024,
        -13.264300346374512,
        5.436540126800537
      ],
      "min": [
        -1.3966799974441528,
        -25.649799346923828,
        4.057539939880371
      ],
      "type": "VEC3"
    },
    {
      "bufferView": 2,
      "byteOffset": 25812,
      "componentType": 5126,
      "count": 2151,
      "max": [
        0.9989935159683228,
        0.996479332447052,
        0.9770835041999817
      ],
      "min": [
        -0.9990931749343872,
        -0.9964792132377625,
        -0.9770753383636475
      ],
      "type": "VEC3"
    },
    {
      "bufferView": 1,
      "componentType": 5126,
      "count": 2151,
      "max": [
        0.9936519861221313,
        0.9900130033493042
      ],
      "min": [
        -0.0015450000064447522,
        0.02099597454071045
      ],
      "type": "VEC2"
    },
    {
      "bufferView": 0,
      "componentType": 5125,
      "count": 2151,
      "type": "SCALAR"
    },
    {
      "bufferView": 2,
      "byteOffset": 51624,
      "componentType": 5126,
      "count": 2400,
      "max": [
        1.1740200519561768,
        -21.684600830078125,
        5.394350051879883
      ],
      "min": [
        -1.1504000425338745,
        -25.533199310302734,
        3.7822699546813965
      ],
      "type": "VEC3"
    },
    {
      "bufferView": 2,
      "byteOffset": 80424,
      "componentType": 5126,
      "count": 2400,
      "max": [
        1.0,
        0.9999916553497314,
        0.9999983906745911
      ],
      "min": [
        -1.0,
        -0.9999907612800598,
        -0.9999978542327881
      ],
      "type": "VEC3"
    },
    {
      "bufferView": 1,
      "byteOffset": 17208,
      "componentType": 5126,
      "count": 2400,
      "max": [
        0.9975990056991577,
        0.9998739957809448
      ],
      "min": [
        0.00010800000018207356,
        0.00015497207641601563
      ],
      "type": "VEC2"
    },
    {
      "bufferView": 0,
      "byteOffset": 8604,
      "componentType": 5125,
      "count": 2400,
      "type": "SCALAR"
    },
    {
      "bufferView": 2,
      "byteOffset": 109224,
      "componentType": 5126,
      "count": 5271,
      "max": [
        6.561930179595947,
        10.938400268554688,
        7.3543901443481445
      ],
      "min": [
        -6.290999889373779,
        -5.109010219573975,
        5.930729866027832
      ],
      "type": "VEC3"
    },
    {
      "bufferView": 2,
      "byteOffset": 172476,
      "componentType": 5126,
      "count": 5271,
      "max": [
        1.0,
        1.0,
        1.0
      ],
      "min": [
        -1.0,
        -0.9999926090240479,
        -1.0
      ],
      "type": "VEC3"
    },
    {
      "bufferView": 1,
      "byteOffset": 36408,
      "componentType": 5126,
      "count": 5271,
      "max": [
        0.9966719746589661,
        1.0
      ],
      "min": [
        -0.4885390102863312,
        0.004683017730712891
      ],
      "type": "VEC2"
    },
    {
      "bufferView": 0,
      "byteOffset": 18204,
      "componentType": 5125,
      "count": 5277,
      "type": "SCALAR"
    },
    {
      "bufferView": 2,
      "byteOffset": 235728,
      "componentType": 5126,
      "count": 8718,
      "max": [
        6.393529891967773,
        10.938400268554688,
        7.3543901443481445
      ],
      "min": [
        -6.586190223693848,
        -24.997499465942383,
        5.399990081787109
      ],
      "type": "VEC3"
    },
    {
      "bufferView": 2,
      "byteOffset": 340344,
      "componentType": 5126,
      "count": 8718,
      "max": [
        0.9999901652336121,
        0.9999256134033203,
        0.9999313950538635
      ],
      "min": [
        -0.9999973177909851,
        -0.9999873042106628,
        -0.9999010562896729
      ],
      "type": "VEC3"
    },
    {
      "bufferView": 1,
      "byteOffset": 78576,
      "componentType": 5126,
      "count": 8718,
      "max": [
        0.9966719746589661,
        1.0
      ],
      "min": [
        0.0,
        0.004683017730712891
      ],
      "type": "VEC2"
    },
    {
      "bufferView": 0,
      "byteOffset": 39312,
      "componentType": 5125,
      "count": 8718,
      "type": "SCALAR"
    },
    {
      "bufferView": 2,
      "byteOffset": 444960,
      "componentType": 5126,
      "count": 55853,
      "max": [
        6.591300010681152,
        28.457000732421875,
        7.353869915008545
      ],
      "min": [
        -6.613440036773682,
        -25.276500701904297,
        3.6916399002075195
      ],
      "type": "VEC3"
    },
    {
      "bufferView": 2,
      "byteOffset": 1115196,
      "componentType": 5126,
      "count": 55853,
      "max": [
        1.0,
        1.0,
        1.0
      ],
      "min": [
        -1.0,
        -1.0,
        -1.0
      ],
      "type": "VEC3"
    },
    {
      "bufferView": 1,
      "byteOffset": 148320,
      "componentType": 5126,
      "count": 55853,
      "max": [
        1.0,
        1.0
      ],
      "min": [
        0.003768000053241849,
        0.0
      ],
      "type": "VEC2"
    },
    {
      "bufferView": 0,
      "byteOffset": 74184,
      "componentType": 5125,
      "count": 57048,
      "type": "SCALAR"
    },
    {
      "bufferView": 2,
      "byteOffset": 1785432,
      "componentType": 5126,
      "count": 176,
      "max": [
        6.504539966583252,
        13.407899856567383,
        7.238530158996582
      ],
      "min": [
        -6.526340007781982,
        13.407899856567383,
        5.922709941864014
      ],
      "type": "VEC3"
    },
    {
      "bufferView": 2,
      "byteOffset": 1787544,
      "componentType": 5126,
      "count": 176,
      "max": [
        2.6213177989120595e-05,
        1.0,
        -0.0
      ],
      "min": [
        -5.2417770348256454e-05,
        1.0,
        -0.0
      ],
      "type": "VEC3"
    },
    {
      "bufferView": 1,
      "byteOffset": 595144,
      "componentType": 5126,
      "count": 176,
      "max": [
        0.48350000381469727,
        0.8322529792785645
      ],
      "min": [
        0.3541019856929779,
        0.704800009727478
      ],
      "type": "VEC2"
    },
    {
      "bufferView": 0,
      "byteOffset": 302376,
      "componentType": 5125,
      "count": 192,
      "type": "SCALAR"
    },
    {
      "bufferView": 2,
      "byteOffset": 1789656,
      "componentType": 5126,
      "count": 18301,
      "max": [
        1.3250232934951782,
        28.55229949951172,
        4.779439926147461
      ],
      "min": [
        -1.3486242294311523,
        -26.47909927368164,
        3.6521499156951904
      ],
      "type": "VEC3"
    },
    {
      "bufferView": 2,
      "byteOffset": 2009268,
      "componentType": 5126,
      "count": 18301,
      "max": [
        0.9969398379325867,
        1.0,
        0.996092677116394
      ],
      "min": [
        -0.9977552890777588,
        -0.982629656791687,
        -0.9990784525871277
      ],
      "type": "VEC3"
    },
    {
      "bufferView": 1,
      "byteOffset": 596552,
      "componentType": 5126,
      "count": 18301,
      "max": [
        0.9875795841217041,
        1.0000007152557373
      ],
      "min": [
        -3.5174684853700455e-07,
        5.960464477539063e-08
      ],
      "type": "VEC2"
    },
    {
      "bufferView": 0,
      "byteOffset": 303144,
      "componentType": 5125,
      "count": 18303,
      "type": "SCALAR"
    },
    {
      "bufferView": 2,
      "byteOffset": 2228880,
      "componentType": 5126,
      "count": 18145,
      "max": [
        0.7634985446929932,
        22.95403480529785,
        1.3003363609313965
      ],
      "min": [
        -0.7302254438400269,
        -13.944765090942383,
        -3.301553249359131
      ],
      "type": "VEC3"
    },
    {
      "bufferView": 2,
      "byteOffset": 2446620,
      "componentType": 5126,
      "count": 18145,
      "max": [
        1.0,
        0.9999880790710449,
        0.9999881386756897
      ],
      "min": [
        -1.0,
        -0.9999880790710449,
        -0.9999881982803345
      ],
      "type": "VEC3"
    },
    {
      "bufferView": 1,
      "byteOffset": 742960,
      "componentType": 5126,
      "count": 18145,
      "max": [
        0.9921900033950806,
        0.9833999872207642
      ],
      "min": [
        0.007813000120222569,
        0.005401015281677246
      ],
      "type": "VEC2"
    },
    {
      "bufferView": 0,
      "byteOffset": 376356,
      "componentType": 5125,
      "count": 18534,
      "type": "SCALAR"
    },
    {
      "bufferView": 2,
      "byteOffset": 2664360,
      "componentType": 5126,
      "count": 46773,
      "max": [
        4.092811584472656,
        23.040233612060547,
        1.5218863487243652
      ],
      "min": [
        -4.047328472137451,
        -13.821664810180664,
        -2.607563018798828
      ],
      "type": "VEC3"
    },
    {
      "bufferView": 2,
      "byteOffset": 3225636,
      "componentType": 5126,
      "count": 46773,
      "max": [
        1.0,
        1.0,
        0.9999970197677612
      ],
      "min": [
        -1.0,
        -1.0,
        -0.9999991655349731
      ],
      "type": "VEC3"
    },
    {
      "bufferView": 1,
      "byteOffset": 888120,
      "componentType": 5126,
      "count": 46773,
      "max": [
        1.0499999523162842,
        1.0
      ],
      "min": [
        -0.604764997959137,
        -0.11864995956420898
      ],
      "type": "VEC2"
    },
    {
      "bufferView": 0,
      "byteOffset": 450492,
      "componentType": 5125,
      "count": 47178,
      "type": "SCALAR"
    },
    {
      "bufferView": 2,
      "byteOffset": 3786912,
      "componentType": 5126,
      "count": 29856,
      "max": [
        4.12885046005249,
        5.395144462585449,
        1.8133368492126465
      ],
      "min": [
        -4.083800315856934,
        -14.08006477355957,
        0.506136417388916
      ],
      "type": "VEC3"
    },
    {
      "bufferView": 2,
      "byteOffset": 4145184,
      "componentType": 5126,
      "count": 29856,
      "max": [
        0.9991054534912109,
        0.999712347984314,
        0.9994910359382629
      ],
      "min": [
        -0.9990630149841309,
        -0.9997133612632751,
        -0.9997128844261169
      ],
      "type": "VEC3"
    },
    {
      "bufferView": 1,
      "byteOffset": 1262304,
      "componentType": 5126,
      "count": 29856,
      "max": [
        0.9902300238609314,
        0.9941400289535522
      ],
      "min": [
        0.021479999646544456,
        0.009769976139068604
      ],
      "type": "VEC2"
    },
    {
      "bufferView": 0,
      "byteOffset": 639204,
      "componentType": 5125,
      "count": 29856,
      "type": "SCALAR"
    },
    {
      "bufferView": 2,
      "byteOffset": 4503456,
      "componentType": 5126,
      "count": 944,
      "max": [
        2.356907606124878,
        18.477088928222656,
        3.8393466472625732
      ],
      "min": [
        -2.8403825759887695,
        -17.96531105041504,
        -3.6783385276794434
      ],
      "type": "VEC3"
    },
    {
      "bufferView": 2,
      "byteOffset": 4514784,
      "componentType": 5126,
      "count": 944,
      "max": [
        0.999748170375824,
        0.9944933652877808,
        0.9913888573646545
      ],
      "min": [
        -0.9997454881668091,
        -0.9962471127510071,
        -0.9859649538993835
      ],
      "type": "VEC3"
    },
    {
      "bufferView": 3,
      "componentType": 5126,
      "count": 944,
      "max": [
        1.0,
        0.9865873456001282,
        0.970088541507721,
        1.0
      ],
      "min": [
        -0.9946842789649963,
        -0.9822916388511658,
        -0.9987562894821167,
        -1.0
      ],
      "type": "VEC4"
    },
    {
      "bufferView": 1,
      "byteOffset": 1501152,
      "componentType": 5126,
      "count": 944,
      "max": [
        0.5779500007629395,
        0.8997129797935486
      ],
      "min": [
        0.23037199676036835,
        0.033254027366638184
      ],
      "type": "VEC2"
    },
    {
      "bufferView": 1,
      "byteOffset": 1508704,
      "componentType": 5126,
      "count": 944,
      "max": [
        0.5779500007629395,
        0.8997129797935486
      ],
      "min": [
        0.23037199676036835,
        0.033254027366638184
      ],
      "type": "VEC2"
    },
    {
      "bufferView": 1,
      "byteOffset": 1516256,
      "componentType": 5126,
      "count": 944,
      "max": [
        0.5779500007629395,
        0.8997129797935486
      ],
      "min": [
        0.23037199676036835,
        0.033254027366638184
      ],
      "type": "VEC2"
    },
    {
      "bufferView": 1,
      "byteOffset": 1523808,
      "componentType": 5126,
      "count": 944,
      "max": [
        0.5779500007629395,
        0.8997129797935486
      ],
      "min": [
        0.23037199676036835,
        0.033254027366638184
      ],
      "type": "VEC2"
    },
    {
      "bufferView": 1,
      "byteOffset": 1531360,
      "componentType": 5126,
      "count": 944,
      "max": [
        0.5779500007629395,
        0.8997129797935486
      ],
      "min": [
        0.23037199676036835,
        0.033254027366638184
      ],
      "type": "VEC2"
    },
    {
      "bufferView": 0,
      "byteOffset": 758628,
      "componentType": 5125,
      "count": 948,
      "type": "SCALAR"
    },
    {
      "bufferView": 2,
      "byteOffset": 4526112,
      "componentType": 5126,
      "count": 944,
      "max": [
        3.8514316082000732,
        18.763959884643555,
        2.1494829654693604
      ],
      "min": [
        -3.8524885177612305,
        -18.272579193115234,
        -1.4044792652130127
      ],
      "type": "VEC3"
    },
    {
      "bufferView": 2,
      "byteOffset": 4537440,
      "componentType": 5126,
      "count": 944,
      "max": [
        1.0,
        0.9999948740005493,
        0.9954760670661926
      ],
      "min": [
        -1.0,
        -0.999991774559021,
        -0.9999255537986755
      ],
      "type": "VEC3"
    },
    {
      "bufferView": 3,
      "byteOffset": 15104,
      "componentType": 5126,
      "count": 944,
      "max": [
        1.0,
        0.999992311000824,
        0.7195624709129333,
        1.0
      ],
      "min": [
        -0.9999560713768005,
        -0.9998878240585327,
        -0.9999876022338867,
        -1.0
      ],
      "type": "VEC4"
    },
    {
      "bufferView": 1,
      "byteOffset": 1538912,
      "componentType": 5126,
      "count": 944,
      "max": [
        0.5779500007629395,
        0.8997129797935486
      ],
      "min": [
        0.23037199676036835,
        0.033254027366638184
      ],
      "type": "VEC2"
    },
    {
      "bufferView": 1,
      "byteOffset": 1546464,
      "componentType": 5126,
      "count": 944,
      "max": [
        0.5779500007629395,
        0.8997129797935486
      ],
      "min": [
        0.23037199676036835,
        0.033254027366638184
      ],
      "type": "VEC2"
    },
    {
      "bufferView": 1,
      "byteOffset": 1554016,
      "componentType": 5126,
      "count": 944,
      "max": [
        0.5779500007629395,
        0.8997129797935486
      ],
      "min": [
        0.23037199676036835,
        0.033254027366638184
      ],
      "type": "VEC2"
    },
    {
      "bufferView": 1,
      "byteOffset": 1561568,
      "componentType": 5126,
      "count": 944,
      "max": [
        0.5779500007629395,
        0.8997129797935486
      ],
      "min": [
        0.23037199676036835,
        0.033254027366638184
      ],
      "type": "VEC2"
    },
    {
      "bufferView": 1,
      "byteOffset": 1569120,
      "componentType": 5126,
      "count": 944,
      "max": [
        0.5779500007629395,
        0.8997129797935486
      ],
      "min": [
        0.23037199676036835,
        0.033254027366638184
      ],
      "type": "VEC2"
    },
    {
      "bufferView": 0,
      "byteOffset": 762420,
      "componentType": 5125,
      "count": 948,
      "type": "SCALAR"
    },
    {
      "bufferView": 2,
      "byteOffset": 4548768,
      "componentType": 5126,
      "count": 5296,
      "max": [
        3.79854679107666,
        19.40673828125,
        0.4235553741455078
      ],
      "min": [
        -3.7938432693481445,
        -21.744361877441406,
        -1.9329047203063965
      ],
      "type": "VEC3"
    },
    {
      "bufferView": 2,
      "byteOffset": 4612320,
      "componentType": 5126,
      "count": 5296,
      "max": [
        1.0,
        1.0,
        1.0
      ],
      "min": [
        -1.0,
        -1.0,
        -1.0
      ],
      "type": "VEC3"
    },
    {
      "bufferView": 1,
      "byteOffset": 1576672,
      "componentType": 5126,
      "count": 5296,
      "max": [
        1.0,
        1.0
      ],
      "min": [
        -0.125,
        0.0
      ],
      "type": "VEC2"
    },
    {
      "bufferView": 0,
      "byteOffset": 766212,
      "componentType": 5125,
      "count": 5475,
      "type": "SCALAR"
    },
    {
      "bufferView": 2,
      "byteOffset": 4675872,
      "componentType": 5126,
      "count": 65534,
      "max": [
        2.920029640197754,
        28.248321533203125,
        1.4751458168029785
      ],
      "min": [
        -2.8817203044891357,
        -31.859577178955078,
        -1.7491042613983154
      ],
      "type": "VEC3"
    },
    {
      "bufferView": 2,
      "byteOffset": 5462280,
      "componentType": 5126,
      "count": 65534,
      "max": [
        1.0,
        1.0,
        1.0
      ],
      "min": [
        -1.0,
        -0.9999974370002747,
        -0.9999882578849792
      ],
      "type": "VEC3"
    },
    {
      "bufferView": 3,
      "byteOffset": 30208,
      "componentType": 5126,
      "count": 65534,
      "max": [
        1.0,
        1.0,
        1.0,
        1.0
      ],
      "min": [
        -1.0,
        -1.0,
        -1.0,
        -1.0
      ],
      "type": "VEC4"
    },
    {
      "bufferView": 1,
      "byteOffset": 1619040,
      "componentType": 5126,
      "count": 65534,
      "max": [
        0.998291015625,
        0.9725180268287659
      ],
      "min": [
        -0.5001829862594604,
        0.0
      ],
      "type": "VEC2"
    },
    {
      "bufferView": 1,
      "byteOffset": 2143312,
      "componentType": 5126,
      "count": 65534,
      "max": [
        0.998291015625,
        0.9725180268287659
      ],
      "min": [
        -0.5001829862594604,
        0.0
      ],
      "type": "VEC2"
    },
    {
      "bufferView": 1,
      "byteOffset": 2667584,
      "componentType": 5126,
      "count": 65534,
      "max": [
        0.998291015625,
        0.9725180268287659
      ],
      "min": [
        -0.5001829862594604,
        0.0
      ],
      "type": "VEC2"
    },
    {
      "bufferView": 1,
      "byteOffset": 3191856,
      "componentType": 5126,
      "count": 65534,
      "max": [
        0.998291015625,
        0.9725180268287659
      ],
      "min": [
        -0.5001829862594604,
        0.0
      ],
      "type": "VEC2"
    },
    {
      "bufferView": 1,
      "byteOffset": 3716128,
      "componentType": 5126,
      "count": 65534,
      "max": [
        0.998291015625,
        0.9725180268287659
      ],
      "min": [
        -0.5001829862594604,
        0.0
      ],
      "type": "VEC2"
    },
    {
      "bufferView": 0,
      "byteOffset": 788112,
      "componentType": 5125,
      "count": 97089,
      "type": "SCALAR"
    },
    {
      "bufferView": 2,
      "byteOffset": 6248688,
      "componentType": 5126,
      "count": 879,
      "max": [
        0.020070206373929977,
        -24.66057777404785,
        1.2022156715393066
      ],
      "min": [
        -0.47595229744911194,
        -31.468578338623047,
        0.17258596420288086
      ],
      "type": "VEC3"
    },
    {
      "bufferView": 2,
      "byteOffset": 6259236,
      "componentType": 5126,
      "count": 879,
      "max": [
        0.015592709183692932,
        -0.019045017659664154,
        0.998903214931488
      ],
      "min": [
        -0.988892138004303,
        -0.2550835609436035,
        -0.9727262854576111
      ],
      "type": "VEC3"
    },
    {
      "bufferView": 3,
      "byteOffset": 1078752,
      "componentType": 5126,
      "count": 879,
      "max": [
        0.7848546504974365,
        0.9998178482055664,
        0.9996247887611389,
        1.0
      ],
      "min": [
        -0.6497012972831726,
        -0.9997084736824036,
        -0.9996162056922913,
        -1.0
      ],
      "type": "VEC4"
    },
    {
      "bufferView": 1,
      "byteOffset": 4240400,
      "componentType": 5126,
      "count": 879,
      "max": [
        0.09250800311565399,
        0.20019501447677612
      ],
      "min": [
        0.008422750048339367,
        0.029664993286132813
      ],
      "type": "VEC2"
    },
    {
      "bufferView": 1,
      "byteOffset": 4247432,
      "componentType": 5126,
      "count": 879,
      "max": [
        0.09250800311565399,
        0.20019501447677612
      ],
      "min": [
        0.008422750048339367,
        0.029664993286132813
      ],
      "type": "VEC2"
    },
    {
      "bufferView": 1,
      "byteOffset": 4254464,
      "componentType": 5126,
      "count": 879,
      "max": [
        0.09250800311565399,
        0.20019501447677612
      ],
      "min": [
        0.008422750048339367,
        0.029664993286132813
      ],
      "type": "VEC2"
    },
    {
      "bufferView": 1,
      "byteOffset": 4261496,
      "componentType": 5126,
      "count": 879,
      "max": [
        0.09250800311565399,
        0.20019501447677612
      ],
      "min": [
        0.008422750048339367,
        0.029664993286132813
      ],
      "type": "VEC2"
    },
    {
      "bufferView": 1,
      "byteOffset": 4268528,
      "componentType": 5126,
      "count": 879,
      "max": [
        0.09250800311565399,
        0.20019501447677612
      ],
      "min": [
        0.008422750048339367,
        0.029664993286132813
      ],
      "type": "VEC2"
    },
    {
      "bufferView": 0,
      "byteOffset": 1176468,
      "componentType": 5125,
      "count": 1317,
      "type": "SCALAR"
    },
    {
      "bufferView": 2,
      "byteOffset": 6269784,
      "componentType": 5126,
      "count": 65533,
      "max": [
        12.154330253601074,
        24.024023056030273,
        1.6587657928466797
      ],
      "min": [
        -12.113470077514648,
        -31.80417823791504,
        -6.348634243011475
      ],
      "type": "VEC3"
    },
    {
      "bufferView": 2,
      "byteOffset": 7056180,
      "componentType": 5126,
      "count": 65533,
      "max": [
        1.0,
        1.0,
        1.0
      ],
      "min": [
        -1.0,
        -0.9999999403953552,
        -1.0
      ],
      "type": "VEC3"
    },
    {
      "bufferView": 3,
      "byteOffset": 1092816,
      "componentType": 5126,
      "count": 65533,
      "max": [
        1.0,
        1.0,
        1.0,
        1.0
      ],
      "min": [
        -1.0,
        -1.0,
        -1.0,
        -1.0
      ],
      "type": "VEC4"
    },
    {
      "bufferView": 1,
      "byteOffset": 4275560,
      "componentType": 5126,
      "count": 65533,
      "max": [
        0.9940549731254578,
        1.0000009536743164
      ],
      "min": [
        0.04288100078701973,
        0.012807011604309082
      ],
      "type": "VEC2"
    },
    {
      "bufferView": 1,
      "byteOffset": 4799824,
      "componentType": 5126,
      "count": 65533,
      "max": [
        0.9940549731254578,
        1.0000009536743164
      ],
      "min": [
        0.04288100078701973,
        0.012807011604309082
      ],
      "type": "VEC2"
    },
    {
      "bufferView": 1,
      "byteOffset": 5324088,
      "componentType": 5126,
      "count": 65533,
      "max": [
        0.9940549731254578,
        1.0000009536743164
      ],
      "min": [
        0.04288100078701973,
        0.012807011604309082
      ],
      "type": "VEC2"
    },
    {
      "bufferView": 1,
      "byteOffset": 5848352,
      "componentType": 5126,
      "count": 65533,
      "max": [
        0.9940549731254578,
        1.0000009536743164
      ],
      "min": [
        0.04288100078701973,
        0.012807011604309082
      ],
      "type": "VEC2"
    },
    {
      "bufferView": 1,
      "byteOffset": 6372616,
      "componentType": 5126,
      "count": 65533,
      "max": [
        0.9940549731254578,
        1.0000009536743164
      ],
      "min": [
        0.04288100078701973,
        0.012807011604309082
      ],
      "type": "VEC2"
    },
    {
      "bufferView": 0,
      "byteOffset": 1181736,
      "componentType": 5125,
      "count": 97260,
      "type": "SCALAR"
    },
    {
      "bufferView": 2,
      "byteOffset": 7842576,
      "componentType": 5126,
      "count": 715,
      "max": [
        10.342329978942871,
        14.324422836303711,
        1.5153255462646484
      ],
      "min": [
        -12.088470458984375,
        -2.1063168048858643,
        0.46904563903808594
      ],
      "type": "VEC3"
    },
    {
      "bufferView": 2,
      "byteOffset": 7851156,
      "componentType": 5126,
      "count": 715,
      "max": [
        0.9587756395339966,
        0.4639170467853546,
        0.9971263408660889
      ],
      "min": [
        -0.8850978016853333,
        -0.8725425004959106,
        -0.9981566667556763
      ],
      "type": "VEC3"
    },
    {
      "bufferView": 3,
      "byteOffset": 2141344,
      "componentType": 5126,
      "count": 715,
      "max": [
        0.9933364391326904,
        0.9999995231628418,
        0.6705493330955505,
        1.0
      ],
      "min": [
        -0.9983523488044739,
        -0.9999907612800598,
        -0.3897249698638916,
        -1.0
      ],
      "type": "VEC4"
    },
    {
      "bufferView": 1,
      "byteOffset": 6896880,
      "componentType": 5126,
      "count": 715,
      "max": [
        0.7499250173568726,
        0.9536129832267761
      ],
      "min": [
        0.6187959909439087,
        0.5705900192260742
      ],
      "type": "VEC2"
    },
    {
      "bufferView": 1,
      "byteOffset": 6902600,
      "componentType": 5126,
      "count": 715,
      "max": [
        0.7499250173568726,
        0.9536129832267761
      ],
      "min": [
        0.6187959909439087,
        0.5705900192260742
      ],
      "type": "VEC2"
    },
    {
      "bufferView": 1,
      "byteOffset": 6908320,
      "componentType": 5126,
      "count": 715,
      "max": [
        0.7499250173568726,
        0.9536129832267761
      ],
      "min": [
        0.6187959909439087,
        0.5705900192260742
      ],
      "type": "VEC2"
    },
    {
      "bufferView": 1,
      "byteOffset": 6914040,
      "componentType": 5126,
      "count": 715,
      "max": [
        0.7499250173568726,
        0.9536129832267761
      ],
      "min": [
        0.6187959909439087,
        0.5705900192260742
      ],
      "type": "VEC2"
    },
    {
      "bufferView": 1,
      "byteOffset": 6919760,
      "componentType": 5126,
      "count": 715,
      "max": [
        0.7499250173568726,
        0.9536129832267761
      ],
      "min": [
        0.6187959909439087,
        0.5705900192260742
      ],
      "type": "VEC2"
    },
    {
      "bufferView": 0,
      "byteOffset": 1570776,
      "componentType": 5125,
      "count": 1071,
      "type": "SCALAR"
    },
    {
      "bufferView": 2,
      "byteOffset": 7859736,
      "componentType": 5126,
      "count": 65532,
      "max": [
        12.154330253601074,
        28.248321533203125,
        1.6540756225585938
      ],
      "min": [
        -1.3263403177261353,
        -25.89177703857422,
        -2.0858242511749268
      ],
      "type": "VEC3"
    },
    {
      "bufferView": 2,
      "byteOffset": 8646120,
      "componentType": 5126,
      "count": 65532,
      "max": [
        1.0,
        1.0,
        1.0
      ],
      "min": [
        -1.0,
        -0.9999760389328003,
        -1.0
      ],
      "type": "VEC3"
    },
    {
      "bufferView": 3,
      "byteOffset": 2152784,
      "componentType": 5126,
      "count": 65532,
      "max": [
        1.0,
        1.0,
        1.0,
        1.0
      ],
      "min": [
        -1.0,
        -1.0,
        -0.9999994039535522,
        -1.0
      ],
      "type": "VEC4"
    },
    {
      "bufferView": 1,
      "byteOffset": 6925480,
      "componentType": 5126,
      "count": 65532,
      "max": [
        0.7501389980316162,
        0.9479979872703552
      ],
      "min": [
        0.0011724999640136957,
        0.0023450255393981934
      ],
      "type": "VEC2"
    },
    {
      "bufferView": 1,
      "byteOffset": 7449736,
      "componentType": 5126,
      "count": 65532,
      "max": [
        0.7501389980316162,
        0.9479979872703552
      ],
      "min": [
        0.0011724999640136957,
        0.0023450255393981934
      ],
      "type": "VEC2"
    },
    {
      "bufferView": 1,
      "byteOffset": 7973992,
      "componentType": 5126,
      "count": 65532,
      "max": [
        0.7501389980316162,
        0.9479979872703552
      ],
      "min": [
        0.0011724999640136957,
        0.0023450255393981934
      ],
      "type": "VEC2"
    },
    {
      "bufferView": 1,
      "byteOffset": 8498248,
      "componentType": 5126,
      "count": 65532,
      "max": [
        0.7501389980316162,
        0.9479979872703552
      ],
      "min": [
        0.0011724999640136957,
        0.0023450255393981934
      ],
      "type": "VEC2"
    },
    {
      "bufferView": 1,
      "byteOffset": 9022504,
      "componentType": 5126,
      "count": 65532,
      "max": [
        0.7501389980316162,
        0.9479979872703552
      ],
      "min": [
        0.0011724999640136957,
        0.0023450255393981934
      ],
      "type": "VEC2"
    },
    {
      "bufferView": 0,
      "byteOffset": 1575060,
      "componentType": 5125,
      "count": 96690,
      "type": "SCALAR"
    },
    {
      "bufferView": 2,
      "byteOffset": 9432504,
      "componentType": 5126,
      "count": 1100,
      "max": [
        1.3374696969985962,
        21.87592315673828,
        1.382795810699463
      ],
      "min": [
        -1.2973302602767944,
        -11.735576629638672,
        -1.7332541942596436
      ],
      "type": "VEC3"
    },
    {
      "bufferView": 2,
      "byteOffset": 9445704,
      "componentType": 5126,
      "count": 1100,
      "max": [
        0.9999933838844299,
        0.15716485679149628,
        0.9999986290931702
      ],
      "min": [
        -0.9999960660934448,
        -0.00589815154671669,
        -0.9999887943267822
      ],
      "type": "VEC3"
    },
    {
      "bufferView": 3,
      "byteOffset": 3201296,
      "componentType": 5126,
      "count": 1100,
      "max": [
        0.023848092183470726,
        1.0,
        0.0059044333174824715,
        -1.0
      ],
      "min": [
        -0.0034146590624004602,
        -1.0,
        -0.1578478366136551,
        -1.0
      ],
      "type": "VEC4"
    },
    {
      "bufferView": 1,
      "byteOffset": 9546760,
      "componentType": 5126,
      "count": 1100,
      "max": [
        0.49790099263191223,
        0.4354249835014343
      ],
      "min": [
        0.25044500827789307,
        0.053865015506744385
      ],
      "type": "VEC2"
    },
    {
      "bufferView": 1,
      "byteOffset": 9555560,
      "componentType": 5126,
      "count": 1100,
      "max": [
        0.49790099263191223,
        0.4354249835014343
      ],
      "min": [
        0.25044500827789307,
        0.053865015506744385
      ],
      "type": "VEC2"
    },
    {
      "bufferView": 1,
      "byteOffset": 9564360,
      "componentType": 5126,
      "count": 1100,
      "max": [
        0.49790099263191223,
        0.4354249835014343
      ],
      "min": [
        0.25044500827789307,
        0.053865015506744385
      ],
      "type": "VEC2"
    },
    {
      "bufferView": 1,
      "byteOffset": 9573160,
      "componentType": 5126,
      "count": 1100,
      "max": [
        0.49790099263191223,
        0.4354249835014343
      ],
      "min": [
        0.25044500827789307,
        0.053865015506744385
      ],
      "type": "VEC2"
    },
    {
      "bufferView": 1,
      "byteOffset": 9581960,
      "componentType": 5126,
      "count": 1100,
      "max": [
        0.49790099263191223,
        0.4354249835014343
      ],
      "min": [
        0.25044500827789307,
        0.053865015506744385
      ],
      "type": "VEC2"
    },
    {
      "bufferView": 0,
      "byteOffset": 1961820,
      "componentType": 5125,
      "count": 1650,
      "type": "SCALAR"
    },
    {
      "bufferView": 2,
      "byteOffset": 9458904,
      "componentType": 5126,
      "count": 65532,
      "max": [
        1.4754897356033325,
        17.34172248840332,
        1.382795810699463
      ],
      "min": [
        -4.716680526733398,
        -19.83757781982422,
        -1.1611242294311523
      ],
      "type": "VEC3"
    },
    {
      "bufferView": 2,
      "byteOffset": 10245288,
      "componentType": 5126,
      "count": 65532,
      "max": [
        1.0,
        1.0,
        1.0
      ],
      "min": [
        -1.0,
        -0.9999997019767761,
        -0.999991238117218
      ],
      "type": "VEC3"
    },
    {
      "bufferView": 3,
      "byteOffset": 3218896,
      "componentType": 5126,
      "count": 65532,
      "max": [
        0.9999998807907104,
        1.0,
        1.0,
        1.0
      ],
      "min": [
        -0.9999998211860657,
        -1.0,
        -1.0,
        -1.0
      ],
      "type": "VEC4"
    },
    {
      "bufferView": 1,
      "byteOffset": 9590760,
      "componentType": 5126,
      "count": 65532,
      "max": [
        0.9997559785842896,
        0.9315775036811829
      ],
      "min": [
        -0.0008119940175674856,
        0.0004889965057373047
      ],
      "type": "VEC2"
    },
    {
      "bufferView": 1,
      "byteOffset": 10115016,
      "componentType": 5126,
      "count": 65532,
      "max": [
        0.9997559785842896,
        0.9315775036811829
      ],
      "min": [
        -0.0008119940175674856,
        0.0004889965057373047
      ],
      "type": "VEC2"
    },
    {
      "bufferView": 1,
      "byteOffset": 10639272,
      "componentType": 5126,
      "count": 65532,
      "max": [
        0.9997559785842896,
        0.9315775036811829
      ],
      "min": [
        -0.0008119940175674856,
        0.0004889965057373047
      ],
      "type": "VEC2"
    },
    {
      "bufferView": 1,
      "byteOffset": 11163528,
      "componentType": 5126,
      "count": 65532,
      "max": [
        0.9997559785842896,
        0.9315775036811829
      ],
      "min": [
        -0.0008119940175674856,
        0.0004889965057373047
      ],
      "type": "VEC2"
    },
    {
      "bufferView": 1,
      "byteOffset": 11687784,
      "componentType": 5126,
      "count": 65532,
      "max": [
        0.9997559785842896,
        0.9315775036811829
      ],
      "min": [
        -0.0008119940175674856,
        0.0004889965057373047
      ],
      "type": "VEC2"
    },
    {
      "bufferView": 0,
      "byteOffset": 1968420,
      "componentType": 5125,
      "count": 93006,
      "type": "SCALAR"
    },
    {
      "bufferView": 2,
      "byteOffset": 11031672,
      "componentType": 5126,
      "count": 3536,
      "max": [
        1.331249713897705,
        -2.0973567962646484,
        1.0390758514404297
      ],
      "min": [
        -4.659260272979736,
        -19.52657699584961,
        -0.5048141479492188
      ],
      "type": "VEC3"
    },
    {
      "bufferView": 2,
      "byteOffset": 11074104,
      "componentType": 5126,
      "count": 3536,
      "max": [
        0.9984126091003418,
        0.9997838735580444,
        0.9999476671218872
      ],
      "min": [
        -0.9980149865150452,
        -0.9999898672103882,
        -0.9956659078598022
      ],
      "type": "VEC3"
    },
    {
      "bufferView": 3,
      "byteOffset": 4267408,
      "componentType": 5126,
      "count": 3536,
      "max": [
        0.9979575872421265,
        0.9999687671661377,
        0.9999067187309265,
        1.0
      ],
      "min": [
        -0.997201144695282,
        -1.0,
        -0.9956324696540833,
        -1.0
      ],
      "type": "VEC4"
    },
    {
      "bufferView": 1,
      "byteOffset": 12212040,
      "componentType": 5126,
      "count": 3536,
      "max": [
        0.9257100224494934,
        0.9079574942588806
      ],
      "min": [
        0.78125,
        0.04345691204071045
      ],
      "type": "VEC2"
    },
    {
      "bufferView": 1,
      "byteOffset": 12240328,
      "componentType": 5126,
      "count": 3536,
      "max": [
        0.9257100224494934,
        0.9079574942588806
      ],
      "min": [
        0.78125,
        0.04345691204071045
      ],
      "type": "VEC2"
    },
    {
      "bufferView": 1,
      "byteOffset": 12268616,
      "componentType": 5126,
      "count": 3536,
      "max": [
        0.9257100224494934,
        0.9079574942588806
      ],
      "min": [
        0.78125,
        0.04345691204071045
      ],
      "type": "VEC2"
    },
    {
      "bufferView": 1,
      "byteOffset": 12296904,
      "componentType": 5126,
      "count": 3536,
      "max": [
        0.9257100224494934,
        0.9079574942588806
      ],
      "min": [
        0.78125,
        0.04345691204071045
      ],
      "type": "VEC2"
    },
    {
      "bufferView": 1,
      "byteOffset": 12325192,
      "componentType": 5126,
      "count": 3536,
      "max": [
        0.9257100224494934,
        0.9079574942588806
      ],
      "min": [
        0.78125,
        0.04345691204071045
      ],
      "type": "VEC2"
    },
    {
      "bufferView": 0,
      "byteOffset": 2340444,
      "componentType": 5125,
      "count": 5298,
      "type": "SCALAR"
    },
    {
      "bufferView": 2,
      "byteOffset": 11116536,
      "componentType": 5126,
      "count": 13243,
      "max": [
        4.7549896240234375,
        -2.066126823425293,
        1.3794355392456055
      ],
      "min": [
        -2.1708803176879883,
        -14.27377700805664,
        0.14232587814331055
      ],
      "type": "VEC3"
    },
    {
      "bufferView": 2,
      "byteOffset": 11275452,
      "componentType": 5126,
      "count": 13243,
      "max": [
        0.999700129032135,
        0.10197164863348007,
        0.9999479055404663
      ],
      "min": [
        -0.9997982978820801,
        -0.36478525400161743,
        -0.9972370862960815
      ],
      "type": "VEC3"
    },
    {
      "bufferView": 3,
      "byteOffset": 4323984,
      "componentType": 5126,
      "count": 13243,
      "max": [
        0.7265462279319763,
        1.0,
        0.9999104142189026,
        1.0
      ],
      "min": [
        -0.6408436894416809,
        -1.0,
        -0.9985976815223694,
        -1.0
      ],
      "type": "VEC4"
    },
    {
      "bufferView": 1,
      "byteOffset": 12353480,
      "componentType": 5126,
      "count": 13243,
      "max": [
        0.9942219853401184,
        1.2891089916229248
      ],
      "min": [
        0.005778249818831682,
        0.5215590000152588
      ],
      "type": "VEC2"
    },
    {
      "bufferView": 1,
      "byteOffset": 12459424,
      "componentType": 5126,
      "count": 13243,
      "max": [
        0.9942219853401184,
        1.2891089916229248
      ],
      "min": [
        0.005778249818831682,
        0.5215590000152588
      ],
      "type": "VEC2"
    },
    {
      "bufferView": 1,
      "byteOffset": 12565368,
      "componentType": 5126,
      "count": 13243,
      "max": [
        0.9942219853401184,
        1.2891089916229248
      ],
      "min": [
        0.005778249818831682,
        0.5215590000152588
      ],
      "type": "VEC2"
    },
    {
      "bufferView": 1,
      "byteOffset": 12671312,
      "componentType": 5126,
      "count": 13243,
      "max": [
        0.9942219853401184,
        1.2891089916229248
      ],
      "min": [
        0.005778249818831682,
        0.5215590000152588
      ],
      "type": "VEC2"
    },
    {
      "bufferView": 1,
      "byteOffset": 12777256,
      "componentType": 5126,
      "count": 13243,
      "max": [
        0.9942219853401184,
        1.2891089916229248
      ],
      "min": [
        0.005778249818831682,
        0.5215590000152588
      ],
      "type": "VEC2"
    },
    {
      "bufferView": 0,
      "byteOffset": 2361636,
      "componentType": 5125,
      "count": 19863,
      "type": "SCALAR"
    },
    {
      "bufferView": 2,
      "byteOffset": 11434368,
      "componentType": 5126,
      "count": 2142,
      "max": [
        1.0232399702072144,
        16.62150001525879,
        6.65477991104126
      ],
      "min": [
        -1.047569990158081,
        -28.563499450683594,
        5.308129787445068
      ],
      "type": "VEC3"
    },
    {
      "bufferView": 2,
      "byteOffset": 11460072,
      "componentType": 5126,
      "count": 2142,
      "max": [
        0.9999909400939941,
        0.9999441504478455,
        0.9998246431350708
      ],
      "min": [
        -0.9999909400939941,
        -0.9999440908432007,
        -0.9998395442962646
      ],
      "type": "VEC3"
    },
    {
      "bufferView": 1,
      "byteOffset": 12883200,
      "componentType": 5126,
      "count": 2142,
      "max": [
        0.8125,
        0.9707030057907104
      ],
      "min": [
        0.023437999188899994,
        0.2744140028953552
      ],
      "type": "VEC2"
    },
    {
      "bufferView": 0,
      "byteOffset": 2441088,
      "componentType": 5125,
      "count": 2142,
      "type": "SCALAR"
    },
    {
      "bufferView": 2,
      "byteOffset": 11485776,
      "componentType": 5126,
      "count": 411,
      "max": [
        0.8296149969100952,
        -24.93320083618164,
        4.937469959259033
      ],
      "min": [
        -0.853335976600647,
        -26.886499404907227,
        4.590270042419434
      ],
      "type": "VEC3"
    },
    {
      "bufferView": 2,
      "byteOffset": 11490708,
      "componentType": 5126,
      "count": 411,
      "max": [
        0.9891963601112366,
        0.9982309341430664,
        0.9379496574401855
      ],
      "min": [
        -0.9898831844329834,
        -0.30781465768814087,
        -0.9999314546585083
      ],
      "type": "VEC3"
    },
    {
      "bufferView": 1,
      "byteOffset": 12900336,
      "componentType": 5126,
      "count": 411,
      "max": [
        0.6909180283546448,
        0.5229489803314209
      ],
      "min": [
        0.4692380130290985,
        0.31884801387786865
      ],
      "type": "VEC2"
    },
    {
      "bufferView": 0,
      "byteOffset": 2449656,
      "componentType": 5125,
      "count": 411,
      "type": "SCALAR"
    },
    {
      "bufferView": 2,
      "byteOffset": 11495640,
      "componentType": 5126,
      "count": 12057,
      "max": [
        1.3282300233840942,
        11.229100227355957,
        4.460820198059082
      ],
      "min": [
        -1.3521699905395508,
        -15.924200057983398,
        4.266880035400391
      ],
      "type": "VEC3"
    },
    {
      "bufferView": 2,
      "byteOffset": 11640324,
      "componentType": 5126,
      "count": 12057,
      "max": [
        0.9969224333763123,
        0.07763297855854034,
        -0.07805458456277847
      ],
      "min": [
        -0.9969264268875122,
        -0.016759146004915237,
        -0.5115960836410522
      ],
      "type": "VEC3"
    },
    {
      "bufferView": 1,
      "byteOffset": 12903624,
      "componentType": 5126,
      "count": 12057,
      "max": [
        0.8242189884185791,
        0.984375
      ],
      "min": [
        0.1796880066394806,
        0.011718988418579102
      ],
      "type": "VEC2"
    },
    {
      "bufferView": 0,
      "byteOffset": 2451300,
      "componentType": 5125,
      "count": 12057,
      "type": "SCALAR"
    },
    {
      "bufferView": 2,
      "byteOffset": 11785008,
      "componentType": 5126,
      "count": 783,
      "max": [
        0.8296149969100952,
        -24.595199584960938,
        4.77140998840332
      ],
      "min": [
        -0.8533340096473694,
        -26.649099349975586,
        4.057559967041016
      ],
      "type": "VEC3"
    },
    {
      "bufferView": 2,
      "byteOffset": 11794404,
      "componentType": 5126,
      "count": 783,
      "max": [
        0.9979748725891113,
        0.9972329139709473,
        0.9050067663192749
      ],
      "min": [
        -0.9979753494262695,
        -0.9923806190490723,
        -0.9998588562011719
      ],
      "type": "VEC3"
    },
    {
      "bufferView": 1,
      "byteOffset": 13000080,
      "componentType": 5126,
      "count": 783,
      "max": [
        0.8339840173721313,
        0.9404299855232239
      ],
      "min": [
        0.0742190033197403,
        0.01367199420928955
      ],
      "type": "VEC2"
    },
    {
      "bufferView": 0,
      "byteOffset": 2499528,
      "componentType": 5125,
      "count": 783,
      "type": "SCALAR"
    }
  ],
  "asset": {
    "extras": {
      "author": "thomas333 (https://sketchfab.com/thomas333)",
      "license": "CC-BY-4.0 (http://creativecommons.org/licenses/by/4.0/)",
      "source": "https://sketchfab.com/3d-models/concorde-3d-model-d2222f34152d4850afff0124872fc9ba",
      "title": "Concorde 3D Model"
    },
    "generator": "Sketchfab-15.73.0",
    "version": "2.0"
  },
  "bufferViews": [
    {
      "buffer": 0,
      "byteLength": 2502660,
      "name": "floatBufferViews",
      "target": 34963
    },
    {
      "buffer": 0,
      "byteLength": 13006344,
      "byteOffset": 2502660,
      "byteStride": 8,
      "name": "floatBufferViews",
      "target": 34962
    },
    {
      "buffer": 0,
      "byteLength": 11803800,
      "byteOffset": 15509004,
      "byteStride": 12,
      "name": "floatBufferViews",
      "target": 34962
    },
    {
      "buffer": 0,
      "byteLength": 4535872,
      "byteOffset": 27312804,
      "byteStride": 16,
      "name": "floatBufferViews",
      "target": 34962
    }
  ],
  "buffers": [
    {
      "byteLength": 31848676,
      "uri": "scene.bin"
    }
  ],
  "images": [
    {
      "uri": "textures/cockpit_ext_baseColor.png"
    },
    {
      "uri": "textures/cockpithull_baseColor.png"
    },
    {
      "uri": "textures/EnginesRight_baseColor.png"
    },
    {
      "uri": "textures/EnginesLeft_baseColor.png"
    },
    {
      "uri": "textures/EnginesBlackPart_baseColor.png"
    },
    {
      "uri": "textures/nosegear_baseColor.png"
    },
    {
      "uri": "textures/main_gear_baseColor.png"
    },
    {
      "uri": "textures/wheel_baseColor.png"
    },
    {
      "uri": "textures/Fuselage_baseColor.png"
    },
    {
      "uri": "textures/Fuselage_metallicRoughness.png"
    },
    {
      "uri": "textures/Fuselage_normal.png"
    },
    {
      "uri": "textures/visor_baseColor.png"
    }
  ],
  "materials": [
    {
      "doubleSided": true,
      "name": "cockpit_ext",
      "pbrMetallicRoughness": {
        "baseColorTexture": {
          "index": 0
        },
        "metallicFactor": 0.220183,
        "roughnessFactor": 0.245461
      }
    },
    {
      "doubleSided": true,
      "name": "cockpithull",
      "pbrMetallicRoughness": {
        "baseColorTexture": {
          "index": 1
        },
        "metallicFactor": 0.0
      }
    },
    {
      "doubleSided": true,
      "name": "EnginesRight",
      "pbrMetallicRoughness": {
        "baseColorTexture": {
          "index": 2
        },
        "metallicFactor": 0.256881,
        "roughnessFactor": 0.227112
      }
    },
    {
      "doubleSided": true,
      "name": "EnginesLeft",
      "pbrMetallicRoughness": {
        "baseColorTexture": {
          "index": 3
        },
        "metallicFactor": 0.6130703129922459,
        "roughnessFactor": 0.6177040564775196
      }
    },
    {
      "doubleSided": true,
      "name": "EnginesBlackPart",
      "pbrMetallicRoughness": {
        "baseColorTexture": {
          "index": 4
        },
        "metallicFactor": 0.834862,
        "roughnessFactor": 0.385321
      }
    },
    {
      "doubleSided": true,
      "name": "black",
      "pbrMetallicRoughness": {
        "baseColorFactor": [
          0.022084,
          0.022084,
          0.022084,
          1.0
        ],
        "metallicFactor": 0.0
      }
    },
    {
      "doubleSided": true,
      "name": "Glass",
      "pbrMetallicRoughness": {
        "roughnessFactor": 0.0
      }
    },
    {
      "doubleSided": true,
      "name": "nosegear",
      "pbrMetallicRoughness": {
        "baseColorTexture": {
          "index": 5
        },
        "metallicFactor": 0.0
      }
    },
    {
      "doubleSided": true,
      "name": "main_gear",
      "pbrMetallicRoughness": {
        "baseColorTexture": {
          "index": 6
        },
        "metallicFactor": 0.0
      }
    },
    {
      "doubleSided": true,
      "name": "wheel",
      "pbrMetallicRoughness": {
        "baseColorTexture": {
          "index": 7
        },
        "metallicFactor": 0.0
      }
    },
    {
      "doubleSided": true,
      "name": "Fuselage",
      "normalTexture": {
        "index": 10,
        "texCoord": 2
      },
      "pbrMetallicRoughness": {
        "baseColorTexture": {
          "index": 8
        },
        "metallicRoughnessTexture": {
          "index": 9,
          "texCoord": 1
        }
      }
    },
    {
      "doubleSided": true,
      "name": "visor",
      "pbrMetallicRoughness": {
        "baseColorTexture": {
          "index": 11
        },
        "metallicFactor": 0.256881,
        "roughnessFactor": 0.272984
      }
    }
  ],
  "meshes": [
    {
      "name": "Object_0",
      "primitives": [
        {
          "attributes": {
            "NORMAL": 1,
            "POSITION": 0,
            "TEXCOORD_0": 2
          },
          "indices": 3,
          "material": 0,
          "mode": 4
        }
      ]
    },
    {
      "name": "Object_1",
      "primitives": [
        {
          "attributes": {
            "NORMAL": 5,
            "POSITION": 4,
            "TEXCOORD_0": 6
          },
          "indices": 7,
          "material": 1,
          "mode": 4
        }
      ]
    },
    {
      "name": "Object_2",
      "primitives": [
        {
          "attributes": {
            "NORMAL": 9,
            "POSITION": 8,
            "TEXCOORD_0": 10
          },
          "indices": 11,
          "material": 2,
          "mode": 4
        }
      ]
    },
    {
      "name": "Object_3",
      "primitives": [
        {
          "attributes": {
            "NORMAL": 13,
            "POSITION": 12,
            "TEXCOORD_0": 14
          },
          "indices": 15,
          "material": 3,
          "mode": 4
        }
      ]
    },
    {
      "name": "Object_4",
      "primitives": [
        {
          "attributes": {
            "NORMAL": 17,
            "POSITION": 16,
            "TEXCOORD_0": 18
          },
          "indices": 19,
          "material": 4,
          "mode": 4
        }
      ]
    },
    {
      "name": "Object_5",
      "primitives": [
        {
          "attributes": {
            "NORMAL": 21,
            "POSITION": 20,
            "TEXCOORD_0": 22
          },
          "indices": 23,
          "material": 5,
          "mode": 4
        }
      ]
    },
    {
      "name": "Object_6",
      "primitives": [
        {
          "attributes": {
            "NORMAL": 25,
            "POSITION": 24,
            "TEXCOORD_0": 26
          },
          "indices": 27,
          "material": 6,
          "mode": 4
        }
      ]
    },
    {
      "name": "Object_7",
      "primitives": [
        {
          "attributes": {
            "NORMAL": 29,
            "POSITION": 28,
            "TEXCOORD_0": 30
          },
          "indices": 31,
          "material": 7,
          "mode": 4
        }
      ]
    },
    {
      "name": "Object_8",
      "primitives": [
        {
          "attributes": {
            "NORMAL": 33,
            "POSITION": 32,
            "TEXCOORD_0": 34
          },
          "indices": 35,
          "material": 8,
          "mode": 4
        }
      ]
    },
    {
      "name": "Object_9",
      "primitives": [
        {
          "attributes": {
            "NORMAL": 37,
            "POSITION": 36,
            "TEXCOORD_0": 38
          },
          "indices": 39,
          "material": 9,
          "mode": 4
        }
      ]
    },
    {
      "name": "Object_10",
      "primitives": [
        {
          "attributes": {
            "NORMAL": 41,
            "POSITION": 40,
            "TANGENT": 42,
            "TEXCOORD_0": 43,
            "TEXCOORD_1": 44,
            "TEXCOORD_2": 45,
            "TEXCOORD_3": 46,
            "TEXCOORD_4": 47
          },
          "indices": 48,
          "material": 10,
          "mode": 4
        }
      ]
    },
    {
      "name": "Object_11",
      "primitives": [
        {
          "attributes": {
            "NORMAL": 50,
            "POSITION": 49,
            "TANGENT": 51,
            "TEXCOORD_0": 52,
            "TEXCOORD_1": 53,
            "TEXCOORD_2": 54,
            "TEXCOORD_3": 55,
            "TEXCOORD_4": 56
          },
          "indices": 57,
          "material": 10,
          "mode": 4
        }
      ]
    },
    {
      "name": "Object_12",
      "primitives": [
        {
          "attributes": {
            "NORMAL": 59,
            "POSITION": 58,
            "TEXCOORD_0": 60
          },
          "indices": 61,
          "material": 5,
          "mode": 4
        }
      ]
    },
    {
      "name": "Object_13",
      "primitives": [
        {
          "attributes": {
            "NORMAL": 63,
            "POSITION": 62,
            "TANGENT": 64,
            "TEXCOORD_0": 65,
            "TEXCOORD_1": 66,
            "TEXCOORD_2": 67,
            "TEXCOORD_3": 68,
            "TEXCOORD_4": 69
          },
          "indices": 70,
          "material": 10,
          "mode": 4
        }
      ]
    },
    {
      "name": "Object_14",
      "primitives": [
        {
          "attributes": {
            "NORMAL": 72,
            "POSITION": 71,
            "TANGENT": 73,
            "TEXCOORD_0": 74,
            "TEXCOORD_1": 75,
            "TEXCOORD_2": 76,
            "TEXCOORD_3": 77,
            "TEXCOORD_4": 78
          },
          "indices": 79,
          "material": 10,
          "mode": 4
        }
      ]
    },
    {
      "name": "Object_15",
      "primitives": [
        {
          "attributes": {
            "NORMAL": 81,
            "POSITION": 80,
            "TANGENT": 82,
            "TEXCOORD_0": 83,
            "TEXCOORD_1": 84,
            "TEXCOORD_2": 85,
            "TEXCOORD_3": 86,
            "TEXCOORD_4": 87
          },
          "indices": 88,
          "material": 10,
          "mode": 4
        }
      ]
    },
    {
      "name": "Object_16",
      "primitives": [
        {
          "attributes": {
            "NORMAL": 90,
            "POSITION": 89,
            "TANGENT": 91,
            "TEXCOORD_0": 92,
            "TEXCOORD_1": 93,
            "TEXCOORD_2": 94,
            "TEXCOORD_3": 95,
            "TEXCOORD_4": 96
          },
          "indices": 97,
          "material": 10,
          "mode": 4
        }
      ]
    },
    {
      "name": "Object_17",
      "primitives": [
        {
          "attributes": {
            "NORMAL": 99,
            "POSITION": 98,
            "TANGENT": 100,
            "TEXCOORD_0": 101,
            "TEXCOORD_1": 102,
            "TEXCOORD_2": 103,
            "TEXCOORD_3": 104,
            "TEXCOORD_4": 105
          },
          "indices": 106,
          "material": 10,
          "mode": 4
        }
      ]
    },
    {
      "name": "Object_18",
      "primitives": [
        {
          "attributes": {
            "NORMAL": 108,
            "POSITION": 107,
            "TANGENT": 109,
            "TEXCOORD_0": 110,
            "TEXCOORD_1": 111,
            "TEXCOORD_2": 112,
            "TEXCOORD_3": 113,
            "TEXCOORD_4": 114
          },
          "indices": 115,
          "material": 10,
          "mode": 4
        }
      ]
    },
    {
      "name": "Object_19",
      "primitives": [
        {
          "attributes": {
            "NORMAL": 117,
            "POSITION": 116,
            "TANGENT": 118,
            "TEXCOORD_0": 119,
            "TEXCOORD_1": 120,
            "TEXCOORD_2": 121,
            "TEXCOORD_3": 122,
            "TEXCOORD_4": 123
          },
          "indices": 124,
          "material": 10,
          "mode": 4
        }
      ]
    },
    {
      "name": "Object_20",
      "primitives": [
        {
          "attributes": {
            "NORMAL": 126,
            "POSITION": 125,
            "TANGENT": 127,
            "TEXCOORD_0": 128,
            "TEXCOORD_1": 129,
            "TEXCOORD_2": 130,
            "TEXCOORD_3": 131,
            "TEXCOORD_4": 132
          },
          "indices": 133,
          "material": 10,
          "mode": 4
        }
      ]
    },
    {
      "name": "Object_21",
      "primitives": [
        {
          "attributes": {
            "NORMAL": 135,
            "POSITION": 134,
            "TANGENT": 136,
            "TEXCOORD_0": 137,
            "TEXCOORD_1": 138,
            "TEXCOORD_2": 139,
            "TEXCOORD_3": 140,
            "TEXCOORD_4": 141
          },
          "indices": 142,
          "material": 10,
          "mode": 4
        }
      ]
    },
    {
      "name": "Object_22",
      "primitives": [
        {
          "attributes": {
            "NORMAL": 144,
            "POSITION": 143,
            "TEXCOORD_0": 145
          },
          "indices": 146,
          "material": 7,
          "mode": 4
        }
      ]
    },
    {
      "name": "Object_23",
      "primitives": [
        {
          "attributes": {
            "NORMAL": 148,
            "POSITION": 147,
            "TEXCOORD_0": 149
          },
          "indices": 150,
          "material": 8,
          "mode": 4
        }
      ]
    },
    {
      "name": "Object_24",
      "primitives": [
        {
          "attributes": {
            "NORMAL": 152,
            "POSITION": 151,
            "TEXCOORD_0": 153
          },
          "indices": 154,
          "material": 5,
          "mode": 4
        }
      ]
    },
    {
      "name": "Object_25",
      "primitives": [
        {
          "attributes": {
            "NORMAL": 156,
            "POSITION": 155,
            "TEXCOORD_0": 157
          },
          "indices": 158,
          "material": 11,
          "mode": 4
        }
      ]
    }
  ],
  "nodes": [
    {
      "children": [
        1
      ],
      "matrix": [
        1.0,
        0.0,
        0.0,
        0.0,
        0.0,
        2.220446049250313e-16,
        -1.0,
        0.0,
        0.0,
        1.0,
        2.220446049250313e-16,
        0.0,
        0.0,
        0.0,
        0.0,
        1.0
      ],
      "name": "Sketchfab_model"
    },
    {
      "children": [
        2
      ],
      "name": "root"
    },
    {
      "children": [
        3
      ],
      "matrix": [
        1.0,
        0.0,
        0.0,
        0.0,
        0.0,
        2.220446049250313e-16,
        1.0,
        0.0,
        0.0,
        -1.0,
        2.220446049250313e-16,
        0.0,
        0.0,
        0.0,
        0.0,
        1.0
      ],
      "name": "GLTF_SceneRootNode"
    },
    {
      "children": [
        4
      ],
      "matrix": [
        1.0,
        0.0,
        -0.0,
        0.0,
        -0.0,
        0.0,
        -1.0,
        0.0,
        0.0,
        1.0,
        0.0,
        0.0,
        0.0,
        0.0,
        0.0,
        1.0
      ],
      "name": "Sketchfab_model_35"
    },
    {
      "children": [
        5
      ],
      "name": "root_34"
    },
    {
      "children": [
        6
      ],
      "matrix": [
        1.0,
        0.0,
        0.0,
        0.0,
        0.0,
        0.0,
        1.0,
        0.0,
        0.0,
        -1.0,
        0.0,
        0.0,
        0.0,
        0.0,
        0.0,
        1.0
      ],
      "name": "GLTF_SceneRootNode_33"
    },
    {
      "children": [
        7,
        10,
        13,
        22,
        25,
        32,
        35,
        38,
        41,
        44,
        47,
        50,
        53,
        55,
        62
      ],
      "matrix": [
        1.0,
        0.0,
        0.0,
        0.0,
        0.0,
        0.0,
        1.0,
        0.0,
        0.0,
        -1.0,
        0.0,
        0.0,
        -0.03192901611328125,
        2.1456456184387207,
        0.1246771514415741,
        1.0
      ],
      "name": "Fuselage_10_32"
    },
    {
      "children": [
        8
      ],
      "matrix": [
        1.0,
        0.0,
        0.0,
        0.0,
        0.0,
        1.0,
        0.0,
        0.0,
        0.0,
        0.0,
        1.0,
        0.0,
        0.03192901611328125,
        -0.12467677146196365,
        -5.035774230957031,
        1.0
      ],
      "name": "CockpitExt_0_1"
    },
    {
      "children": [
        9
      ],
      "name": "Object_10_0"
    },
    {
      "mesh": 0,
      "name": "Object_9"
    },
    {
      "children": [
        11
      ],
      "matrix": [
        1.0,
        0.0,
        0.0,
        0.0,
        0.0,
        1.0,
        0.0,
        0.0,
        0.0,
        0.0,
        1.0,
        0.0,
        0.03192901611328125,
        -0.12467677146196365,
        -5.035774230957031,
        1.0
      ],
      "name": "CockpitHull_1_3"
    },
    {
      "children": [
        12
      ],
      "name": "Object_12_2"
    },
    {
      "mesh": 1,
      "name": "Object_12"
    },
    {
      "children": [
        14,
        16,
        18,
        20
      ],
      "matrix": [
        1.0,
        0.0,
        0.0,
        0.0,
        0.0,
        1.0,
        0.0,
        0.0,
        0.0,
        0.0,
        1.0,
        0.0,
        0.03192901611328125,
        -0.12467677146196365,
        -5.035774230957031,
        1.0
      ],
      "name": "Engines_2_8"
    },
    {
      "children": [
        15
      ],
      "name": "Object_14_4"
    },
    {
      "mesh": 2,
      "name": "Object_15"
    },
    {
      "children": [
        17
      ],
      "name": "Object_15_5"
    },
    {
      "mesh": 3,
      "name": "Object_17"
    },
    {
      "children": [
        19
      ],
      "name": "Object_16_6"
    },
    {
      "mesh": 4,
      "name": "Object_19"
    },
    {
      "children": [
        21
      ],
      "name": "Object_17_7"
    },
    {
      "mesh": 5,
      "name": "Object_21"
    },
    {
      "children": [
        23
      ],
      "matrix": [
        1.0,
        0.0,
        0.0,
        0.0,
        0.0,
        1.0,
        0.0,
        0.0,
        0.0,
        0.0,
        1.0,
        0.0,
        0.03192901611328125,
        -0.12467677146196365,
        -5.035774230957031,
        1.0
      ],
      "name": "Glass_3_10"
    },
    {
      "children": [
        24
      ],
      "name": "Object_19_9"
    },
    {
      "mesh": 6,
      "name": "Object_24"
    },
    {
      "children": [
        26,
        28,
        30
      ],
      "matrix": [
        1.0,
        0.0,
        0.0,
        0.0,
        0.0,
        1.0,
        0.0,
        0.0,
        0.0,
        0.0,
        1.0,
        0.0,
        0.00423431396484375,
        0.3980886936187744,
        2.9613490104675293,
        1.0
      ],
      "name": "LandingGear_4_14"
    },
    {
      "children": [
        27
      ],
      "name": "Object_21_11"
    },
    {
      "mesh": 7,
      "name": "Object_27"
    },
    {
      "children": [
        29
      ],
      "name": "Object_22_12"
    },
    {
      "mesh": 8,
      "name": "Object_29"
    },
    {
      "children": [
        31
      ],
      "name": "Object_23_13"
    },
    {
      "mesh": 9,
      "name": "Object_31"
    },
    {
      "children": [
        33
      ],
      "matrix": [
        0.1749023195830024,
        0.17069218013647477,
        0.9696769349864638,
        0.0,
        -0.1614107227589857,
        0.9765041916942929,
        -0.142780048262695,
        0.0,
        -0.9712650293215068,
        -0.13154369328756468,
        0.19834439637499202,
        0.0,
        0.0177001953125,
        4.756750583648682,
        0.735569953918457,
        1.0
      ],
      "name": "LGCoversClosed_5_16"
    },
    {
      "children": [
        34
      ],
      "name": "Object_25_15"
    },
    {
      "mesh": 10,
      "name": "Object_34"
    },
    {
      "children": [
        36
      ],
      "matrix": [
        1.0,
        0.0,
        0.0,
        0.0,
        0.0,
        1.0,
        0.0,
        0.0,
        0.0,
        0.0,
        1.0,
        0.0,
        0.01886749267578125,
        4.798902988433838,
        1.2014023065567017,
        1.0
      ],
      "name": "LGCoversOpen_6_18"
    },
    {
      "children": [
        37
      ],
      "name": "Object_27_17"
    },
    {
      "mesh": 11,
      "name": "Object_37"
    },
    {
      "children": [
        39
      ],
      "matrix": [
        1.0,
        0.0,
        0.0,
        0.0,
        0.0,
        1.0,
        0.0,
        0.0,
        0.0,
        0.0,
        1.0,
        0.0,
        0.0171051025390625,
        4.093085289001465,
        1.0298603773117065,
        1.0
      ],
      "name": "LGInsideCovers_7_20"
    },
    {
      "children": [
        40
      ],
      "name": "Object_29_19"
    },
    {
      "mesh": 12,
      "name": "Object_40"
    },
    {
      "children": [
        42,
        43
      ],
      "name": "Object_4_21"
    },
    {
      "mesh": 13,
      "name": "Object_42"
    },
    {
      "mesh": 14,
      "name": "Object_43"
    },
    {
      "children": [
        45,
        46
      ],
      "name": "Object_5_22"
    },
    {
      "mesh": 15,
      "name": "Object_45"
    },
    {
      "mesh": 16,
      "name": "Object_46"
    },
    {
      "children": [
        48,
        49
      ],
      "name": "Object_6_23"
    },
    {
      "mesh": 17,
      "name": "Object_48"
    },
    {
      "mesh": 18,
      "name": "Object_49"
    },
    {
      "children": [
        51,
        52
      ],
      "name": "Object_7_24"
    },
    {
      "mesh": 19,
      "name": "Object_51"
    },
    {
      "mesh": 20,
      "name": "Object_52"
    },
    {
      "children": [
        54
      ],
      "name": "Object_8_25"
    },
    {
      "mesh": 21,
      "name": "Object_54"
    },
    {
      "children": [
        56,
        58,
        60
      ],
      "matrix": [
        1.0,
        0.0,
        0.0,
        0.0,
        0.0,
        1.0,
        0.0,
        0.0,
        0.0,
        0.0,
        1.0,
        0.0,
        0.03192901611328125,
        -0.12467677146196365,
        -5.035774230957031,
        1.0
      ],
      "name": "RandomStuff_8_29"
    },
    {
      "children": [
        57
      ],
      "name": "Object_31_26"
    },
    {
      "mesh": 22,
      "name": "Object_57"
    },
    {
      "children": [
        59
      ],
      "name": "Object_32_27"
    },
    {
      "mesh": 23,
      "name": "Object_59"
    },
    {
      "children": [
        61
      ],
      "name": "Object_33_28"
    },
    {
      "mesh": 24,
      "name": "Object_61"
    },
    {
      "children": [
        63
      ],
      "matrix": [
        1.0,
        0.0,
        0.0,
        0.0,
        0.0,
        1.0,
        0.0,
        0.0,
        0.0,
        0.0,
        1.0,
        0.0,
        0.03192901611328125,
        -0.12467677146196365,
        -5.035774230957031,
        1.0
      ],
      "name": "Visor_9_31"
    },
    {
      "children": [
        64
      ],
      "name": "Object_35_30"
    },
    {
      "mesh": 25,
      "name": "Object_64"
    }
  ],
  "samplers": [
    {
      "magFilter": 9729,
      "minFilter": 9987,
      "wrapS": 10497,
      "wrapT": 10497
    }
  ],
  "scene": 0,
  "scenes": [
    {
      "name": "Sketchfab_Scene",
      "nodes": [
        0
      ]
    }
  ],
  "textures": [
    {
      "sampler": 0,
      "source": 0
    },
    {
      "sampler": 0,
      "source": 1
    },
    {
      "sampler": 0,
      "source": 2
    },
    {
      "sampler": 0,
      "source": 3
    },
    {
      "sampler": 0,
      "source": 4
    },
    {
      "sampler": 0,
      "source": 5
    },
    {
      "sampler": 0,
      "source": 6
    },
    {
      "sampler": 0,
      "source": 7
    },
    {
      "sampler": 0,
      "source": 8
    },
    {
      "sampler": 0,
      "source": 9
    },
    {
      "sampler": 0,
      "source": 10
    },
    {
      "sampler": 0,
      "source": 11
    }
  ]
}
